<svg version="1.0" xmlns="http://www.w3.org/2000/svg"
 width="128px" height="128px" viewBox="0 0 1024 1024"
 preserveAspectRatio="xMidYMid meet">

<g transform="translate(0.000000,1500) scale(0.100000,-0.100000)"
fill="#2a0845">
<path d="M0 10000 l0 -10000 10000 0 10000 0 0 10000 0 10000 -10000 0 -10000
0 0 -10000z m5240 1925 c543 -108 962 -544 1046 -1088 l17 -105 36 -7 c80 -15
242 -88 343 -154 180 -120 307 -263 403 -456 216 -435 138 -957 -196 -1310
-177 -187 -406 -309 -659 -350 -124 -20 -1248 -23 -1268 -3 -19 19 -15 66 7
78 13 6 220 10 604 10 628 0 662 2 813 54 282 96 523 320 639 594 63 150 80
238 79 417 -1 139 -4 173 -27 257 -101 381 -396 674 -774 771 -101 26 -92 11
-113 181 -43 348 -268 679 -592 873 -282 168 -654 208 -982 106 -99 -30 -119
-26 -124 26 -3 28 1 33 35 47 54 23 210 61 295 73 94 13 322 5 418 -14z m-386
-221 c14 -13 16 -64 16 -406 0 -350 -2 -393 -17 -410 -14 -16 -34 -18 -190
-18 l-173 0 0 -195 0 -195 648 0 c491 0 651 -3 660 -12 7 -7 12 -36 12 -65 l0
-53 40 0 c22 0 40 -2 40 -4 0 -2 -28 -53 -63 -114 l-63 -110 -62 107 c-34 59
-62 111 -62 114 0 4 18 7 41 7 33 0 40 3 37 18 -3 16 -73 17 -1276 20 -1267 2
-1272 2 -1272 -18 0 -17 7 -20 40 -20 22 0 40 -2 40 -4 0 -2 -28 -52 -61 -111
-38 -65 -65 -103 -71 -97 -5 5 -35 55 -68 110 l-58 102 39 0 c39 0 39 0 39 39
0 22 4 51 10 65 l10 26 650 0 650 0 0 195 0 195 -169 0 c-141 0 -172 3 -185
16 -14 13 -16 65 -16 409 0 344 2 396 16 409 13 14 65 16 409 16 344 0 396 -2
409 -16z m-1259 -398 c39 -8 110 -29 158 -46 131 -48 164 -83 116 -125 -18
-17 -24 -18 -52 -6 -291 120 -489 132 -740 47 -312 -107 -537 -359 -616 -693
-11 -45 -22 -87 -25 -92 -4 -5 -23 -15 -44 -22 -140 -45 -312 -173 -419 -312
-63 -82 -127 -208 -159 -312 -25 -83 -28 -104 -28 -260 0 -157 2 -177 27 -258
99 -322 330 -554 653 -654 l89 -28 663 -5 c714 -5 681 -3 682 -56 0 -45 8 -44
-636 -44 -649 0 -710 3 -849 47 -389 123 -671 457 -725 861 -33 243 31 518
169 721 99 145 255 280 413 354 84 41 87 43 94 82 11 67 71 223 114 300 85
148 237 300 385 385 90 51 237 104 330 119 39 6 81 13 95 15 46 8 234 -3 305
-18z m-55 -1275 c6 -11 10 -90 10 -185 l0 -166 895 0 895 0 0 173 c0 121 4
177 12 185 9 9 115 12 415 12 388 0 403 -1 413 -19 6 -13 10 -160 10 -410 l0
-390 -22 -15 c-19 -14 -75 -16 -403 -16 -328 0 -384 2 -403 16 -21 15 -22 21
-22 190 l0 174 -425 0 -425 0 0 -199 0 -200 40 -3 39 -3 -60 -105 c-34 -58
-62 -106 -64 -108 -3 -3 -125 206 -125 214 0 2 16 4 35 4 l35 0 0 200 0 200
-420 0 -420 0 0 -170 c0 -157 -2 -172 -20 -190 -19 -19 -33 -20 -403 -20 -330
0 -386 2 -405 16 l-22 15 0 398 c0 295 3 400 12 409 9 9 115 12 415 12 388 0
403 -1 413 -19z m1314 -1147 c14 -13 16 -64 16 -406 0 -350 -2 -393 -17 -410
-15 -17 -41 -18 -409 -18 -344 0 -395 2 -408 16 -14 13 -16 65 -16 409 0 344
2 396 16 409 13 14 65 16 409 16 344 0"/>
</g>
</svg>
