<svg id="Layer_1" data-name="Layer 1" xmlns="http://www.w3.org/2000/svg" viewBox="0 0 1000 1000" stroke="pink" fill="#1e1e2f"><title>sunflower</title><path d="M540,712.13c-1-9.91-1.81-19.83-2.95-29.71s-2.55-19.51-4.28-29.2l4.42,47.91H537c-2.73-20.08-5.15-40.22-8.29-60.24-2.06-13.18-5.16-26.2-7.76-39.3a44.09,44.09,0,0,1-1-6.66c0-.94.81-1.91,1.25-2.87.68.84,1.76,1.59,2,2.54,2.82,12.79,5.47,25.62,8.26,38.42,5.56,25.59,7.89,51.54,9,77.64,0,.47,0,.95,0,1.42Z"/><path d="M506.34,595.1c5.05,10.21,12.31,89.35,9.91,107.18l-2-29.14h-.49V693l-.12,0Z"/><path d="M528.93,315.38c-.87,7-1.62,14.09-2.65,21.1a442.63,442.63,0,0,1-13.2,61.1,6.29,6.29,0,0,1-2,3.28l15.23-86.74h.45l-1.14,11.74.58.07c.41-2.36.72-4.74,1.28-7.07a19.75,19.75,0,0,1,1.51-3.42Z"/><path d="M694.44,745.74l3.3,5.33c-8.91-26.78-22-51.65-34.7-76.78,2.32,3.64,4.74,7.23,6.94,10.94s4.42,7.82,6.51,11.8,3.93,7.8,5.85,11.72,3.89,8,5.83,12l.84-.34-9.42-24.79c9.67,19.55,15.6,40.4,22,61.1l-1.32.61-5.7-11.69Z"/><path d="M610,292.09c-5.4,29.74-43,113.24-56.11,124.24,7.31-13.13,15.05-26,21.8-39.47,6.87-13.67,13.21-27.65,18.93-41.84S604.91,306.42,610,292.09Z"/><path d="M461.71,417c4-4.35,4.41-4.54,12.8-5.25l-4.7-86.84.7-.07c.32,2.75.66,5.49,1,8.24A666.89,666.89,0,0,1,475,409.32c0,1.33,1.29,2.87,2.34,4,1.61,1.67,3.93,2.76,5.22,4.61,2,2.82.21,5.27-3.48,5.36,1.45-4,.8-5.76-3.62-6.94-2.65-.71-5.61-.37-8.42-.27a44.9,44.9,0,0,0-5.42.85Z"/><path d="M372.58,609.5a356.06,356.06,0,0,0-40.05,65.26c-11.1,23-21.54,46.32-29.7,70.57l-.89-.28c1.78-5.33,3.19-10.82,5.42-15.95,8-18.53,16.16-37,24.61-55.37A314.45,314.45,0,0,1,369,612.34c.91-1.17,1.85-2.31,2.78-3.46Z"/><path d="M376.49,370.64c-26.39-42.87-42.25-89.79-54.05-138.28C335.91,280.24,351,327.47,376.49,370.64Z"/><path d="M751.88,524.91c-29.33,2.4-100.13-.65-115.55-5.23,20,1.48,39,3.43,58,4.13,19.19.7,38.43.15,57.65.15Z"/><path d="M633,619.92l-54.35-54.75C599.36,581.73,618,600.28,633,619.92Z"/><path d="M717.74,263.38c-3.25,5-6.42,10-9.75,14.89-13,19.23-26.76,37.92-42.21,55.3a14.28,14.28,0,0,1-3.38,3.33c19.28-24.32,38.32-48.73,55.13-75.55l.11,2.15Z"/><path d="M270.29,638.43l-16.53,11.23.41.75,12.09-6.8.33.62-37.39,23.6C240.75,655.05,255.65,646.91,270.29,638.43Z"/><path d="M263.69,321.37l15.06,12.55c-13.34-9.29-26.51-18.76-36.47-31.93L280,331.13l-.38.54-15.33-10.9Z"/><path d="M694.55,745.65c-1-1.36-2-2.67-2.93-4.09Q671.81,709.39,652,677.19a3.89,3.89,0,0,1-.81-2.81c2.93,4,6.19,7.74,8.73,11.95,11.16,18.46,22.13,37,33.12,55.59a21.08,21.08,0,0,1,1.37,3.82Z"/><path d="M379.2,396.51l44.26,41.61-.7.74c-15.29-13.3-31.18-26-44.26-41.61Z"/><path d="M557.46,662A449.79,449.79,0,0,1,541,594.79l1-.24Z"/><path d="M809.89,372.64c-8.55,9.84-36.95,30.15-45.28,31.65Z"/><path d="M568.07,340.91l-21.82,65.38-1-.34A443.91,443.91,0,0,1,568.07,340.91Z"/><path d="M330.34,553.19C346.24,547.06,361.8,540,378,534.7,370.95,540.2,336.44,553.33,330.34,553.19Z"/><path d="M507.06,384.28C506.19,370.15,506,356,508.67,342c5.57,10.81,5,22.28,4.1,33.42l-2.13-29.31-2,0Z"/><path d="M498.21,654c-1.23-13.67,0-27.15,1.22-40.63l1.12,0-2.08,36.7.95.11c4.35-10.11,4.62-21,5.78-31.76C505.6,630.8,504.94,643,498.21,654Z"/><path d="M604.31,560.05c26.22,8.55,49.85,22.67,71.59,40.17C664.3,592.79,653,584.82,641,578.1S616.24,565.85,604.31,560.05Z"/><path d="M246.3,294.62c18.94,8.78,38.06,17.21,55,29.59L245.7,295.34Z"/><path d="M479.43,780.93c-3.75,9.24-7.13,18.66-11.35,27.68-3,6.39-7.08,12.26-10.7,18.35-.08.07-.17.12-.25.2-1.3,1.19-2.38,3.35-3.24,4.49-.48.63-5.16,6.24-4.94,6.55-1.07-1.51-1.47-2.56-2.23-3-1.11-.67-2.66-1.54-3.71-1.24-4.78,1.39-6.59.34-6.84-4.64-.13-2.61-.09-5.24,0-7.86q.42-19.82.89-39.65c-.67,2-1.89,4-1.94,6-.36,14.46-.64,28.94-.61,43.4,0,4.37,4,6.4,8.13,5a4,4,0,0,1,3.19,1c1.32,1.18,2.78,3.26,4.24,1.38,2-2.62,3.61-5.22,5.81-7.72,2.54-2.88,5.79-5.9,7.42-9.4,1.87-4,3.75-8,5.61-12.07q5.51-11.95,10.9-23.95c.69-1.54.66-3.41,1.14-6.16C479.88,780.43,479.55,780.64,479.43,780.93Z"/><path d="M232.19,674.64l55.07-22C281.3,657.47,240.89,674.14,232.19,674.64Z"/><path d="M571.51,359.62c2.17,5.78-.65,10.71-2,15.85L572,361.95l-1.36-.36c-7,15.37-9.82,32.44-18.49,47.15C559.36,392.69,562.53,375,571.51,359.62Z"/><path d="M547.66,591.43c7.38,15.57,8.58,32.94,14.07,49.07l1.54-.27-1.84-15.92c1.65,5.83,3.08,11.67,2.16,17.74l-1.42.5c-.85-1.62-2-3.16-2.49-4.88-2-7.21-3.72-14.48-5.59-21.71C552,607.76,549.8,599.59,547.66,591.43Z"/><path d="M406.51,472.82l-42.91-17.93v-.17l12.26,3.59.17-.42-4.28-2.74.31-.58,34.88,17.56Z"/><path d="M396.16,368.15c-.82-.72-1.92-1.29-2.41-2.2q-13.28-24.85-26.43-49.77l1.26-.67c2.21,4.37,4.34,8.79,6.65,13.12,6.46,12.08,13,24.11,19.48,36.17a31.84,31.84,0,0,1,1.38,3.44Z"/><path d="M720.69,377l47.57-36.2C755.45,354.35,738.37,366.07,720.69,377Z"/><path d="M754.81,678.49l-41.89-38.4C720.13,643.21,751,671.79,754.81,678.49Z"/><path d="M752.51,681.55l-42.72-39.44C725,654.17,739.93,666.62,752.51,681.55Z"/><path d="M669.17,476.71l-55.61,5.71-.11-1.1,55.62-5.58Z"/><path d="M244.58,393l-36.13-14.74.57-1.4,36.1,14.93Z"/><path d="M760.05,344.29l-40.76,30.25-.64-.85,40.7-30.2Z"/><path d="M369.23,204.65l11.95,45.84C378.17,246.6,368.91,211.55,369.23,204.65Z"/><path d="M615.4,402.33l-26.47,25.37-.89-.93,26.59-25.28Z"/><path d="M401.49,365.15l-14.11-32.5,1.07-.47,14.35,32.39Z"/><path d="M362.81,731.54l-16.47,44.13A214.8,214.8,0,0,1,362.81,731.54Z"/><path d="M613.19,479.2l33.59-7.94.21.85-33.44,8.52Z"/><path d="M578.67,431.17l27.84-26.72C604.18,409.22,584.65,428,578.67,431.17Z"/><path d="M638.26,434.47c-3.69,1.62-7.28,3.52-11.08,4.79a230.23,230.23,0,0,1-23.29,6.5,19,19,0,0,1,1.9-.88q15-5.08,30-10.11a10.65,10.65,0,0,1,2.54-.22Z"/><path d="M459.56,366.33l5.62,30-1.52.27-5-30.24Z"/><path d="M263,363.13l-28-14.5.52-1,28,14.59Z"/><path d="M609.54,528.84l33.18,4.78-.12.91-33.13-4.6Z"/><path d="M459.93,596.15,453,620.34,452,620l6.59-24.33Z"/><path d="M501.46,404.18v-18.1h.79v18.12Z"/><path d="M346,540.13,366,534l.4,1.37-20.12,5.89Z"/><path d="M554.69,809.71l.42,5.89-.61.07-5.58-33.48.59-.1q2.62,13.86,5.25,27.73Z"/><path d="M545.63,332a8.36,8.36,0,0,1-.45-2.8c1.5-7.57,3.11-15.12,4.69-22.67l1,.2q-2.68,12.6-5.34,25.2Z"/><path d="M555.28,804.52a15.7,15.7,0,0,1-1.24-3.28c-1.36-9.59-2.63-19.18-3.18-28.88l4.38,32.23Z"/><path d="M576.4,570.84l16.28,17.41-.87.82-16.16-17.52Z"/><path d="M377.16,200.85c5.35,1.6,4.92,7.16,6.87,11.06L376,201.72Z"/><path d="M377.85,567.4l-6.6,1.6-.53-1.12,13.61-9,.51.73-9.71,6.77,2.53.32Z"/><path d="M385.32,424.75l-11.89-9.57.56-1.06,6.17,2.22-.11.51-2.43.16,8.31,7Z"/><path d="M595.83,587.16,608,601.62c-1.52-.55-2.13-.58-2.41-.9-3-3.47-6-6.93-8.9-10.52-.6-.76-.54-2.05-.78-3.1Z"/><path d="M312.74,284.46l-18.31-11.79c6.66,3.09,13.21,6.33,18.23,11.88Z"/><path d="M358.94,393.61l13.72,10.53-.51.71L358,394.73Z"/><path d="M487.72,595.13l7.71-1c.61,2.21-1,3.39-3,3.86A3.58,3.58,0,0,1,487.72,595.13Z"/><path d="M278.15,702.09l14.35-7.33.43.84-14.26,7.33Z"/><path d="M529,315.45c.23-3.53.34-7.07.73-10.59a20.54,20.54,0,0,1,2.28-7.55q-1.56,9-3.1,18.06Z"/><path d="M298,676.25l-14.73,8.2-.48-.83,14.71-8.14Z"/><path d="M309.65,300l-12.84-8.71.49-.75,13,8.71Z"/><path d="M555.24,804.59,558,824.44l-.42.05q-1.46-7.38-2.92-14.77l.05.09c.17-1.76.35-3.51.53-5.27Z"/><path d="M595.91,587.1c-.71-.09-1.7.08-2.08-.33-2.75-2.93-5.39-6-8.06-9l.8-.73q4.61,5.07,9.24,10.12Z"/><path d="M699.61,306.82l-6.22,12.91-1.07-.57,7.39-12.24Z"/><path d="M750.42,476.71l17.64-.86,0,.66-17.74,1Z"/><path d="M601.39,601.42l-8-9.9.81-.66,7.8,9.94Z"/><path d="M175.12,480.21,248,488.28C238.71,489.68,182.19,483.48,175.12,480.21Z"/><path d="M332.65,511.73l67.58,1.94v.62l-67.45-1.38Z"/><path d="M386.37,502.45l-53.25-7.29.13-.94,53.42,7.34Z"/><path d="M372.26,496.73l-34.44-6.19.12-.66,34.34,6Z"/><path d="M789,593.44c.71-1.33.75-1.38-.89-2.57-6.25-4.55-12.53-9.06-18.79-13.6a7.87,7.87,0,0,1-2-2c17.46,10.91,33.39,23.78,48.66,37.46l-51.17-28.19v-.18c3.58,1.61,7.19,3.16,10.73,4.84q5.75,2.72,11.39,5.64a119.22,119.22,0,0,0,11,5.36L789,593.36Z"/><path d="M789,593.36l-17.85-9.52.68-1.18L789,593.44Z"/><path d="M651.92,742.7l-16-32.09.92-.45C643.66,720.1,648.33,731.07,651.92,742.7Z"/><path d="M632.45,709.62l11.15,24.25-.87.41L631.4,710.14Z"/><path d="M219.57,434.59,238,438.21l-.13.72-18.42-3.41Z"/><path d="M477.36,222.45,472.57,184l1-.13,5,38.26Z"/><path d="M676.88,229.38l-32.17,48.78-1.49-1,32.72-48.46Z"/><path d="M670,269.09c-4.63,11.14-10.34,21.44-18,30.53l-.85-.52Z"/><path d="M647.15,298.28l12.73-21.49.82.47L648.13,299Z"/><path d="M726.73,325l8.6-10.94.9.77-9.57,10.1Z"/><path d="M461.62,416.88l.09.09h0Z"/><path d="M312.66,284.55h.16l-.07-.08Z"/><path d="M561.77,427.79l.11-.22-.21.11Z"/><path d="M726.67,324.93l-.2.37.27-.3Z"/><path d="M841.79,504.4c4.34-3.74,4.36-4.95-.88-6.44-10.91-3.11-22-5.72-33-8.54l-3.59-.94a199.23,199.23,0,0,0,23.27-10c4.66-2.45,10.27-5.52,13.31-10,2.19-3.22,2.46-6.32-1.27-8.35a48.35,48.35,0,0,0-9.94-3.54c-4.19-1.19-8.43-2.18-12.66-3.18s-8.53-2-12.74-3.24c-2.12-.62-4.23-1.28-6.31-2-.63-.22-5.69-2.62-5.94-2.39,1.26-1.12,2.1-1.83,2.91-2.58,7.93-7.41,15.87-14.79,23.76-22.24,3.27-3.09,6.55-6.2,9.67-9.45s3.23-7.95-.88-10.49a21.8,21.8,0,0,0-5.85-2.68,11.65,11.65,0,0,0-5.31-.21c-12.1,1.88-24.26,3.42-36.33,5.44l0,0c6.86-5.18,13.28-10.91,20-16.25,5.36-4.29,10.91-8.82,13.71-15.08a4.25,4.25,0,0,0,.42-3.23c-.5-1.24-1.84-1.55-3-1.8-.22,0-2.56-.32-2.53-.58.45-4.36-2.21-5.52-5.75-5.52a32.27,32.27,0,0,0-7.44.44c-9,2.14-17.88,4.54-26.82,6.82a25.23,25.23,0,0,1-2.8.34c9.8-13.07,20.4-25,26.51-40.49,1.36-2.81,1.82-6.65,2.29-9.14a6.06,6.06,0,0,0,.14-1.29c-.07-2.1-.63-3.14-3-3.29a3.59,3.59,0,0,1-2.58-1.08c-3-5.17-7.52-4.85-12.1-3.43-7.51,2.32-14.92,5-22.34,7.59-4.83,1.7-9.61,3.55-14.46,5.34l10.39-18.48L758,291.31c.6-1.07,1.23-2.14,1.81-3.23a1.22,1.22,0,0,0-.08-1.64c-.78-1-2.43-1.3-2.88-2.53-1.44-4-3.92-3.24-6.51-1.7q-7.23,4.31-14.29,8.89c-4.64,3-9.19,6.14-14.65,9.81.58-2.3.86-3.47,1.17-4.63,4.43-16.59,10.11-32.92,11-50.29,0-.17-.22-.35-.41-.63l-2.06,1.75c-.74-1.08-1.68-2.88-1.94-2.78-4.28,1.55-9.36-1.76-13.22,2.17a10.3,10.3,0,0,1-2.25,1.33c-14.07,8.21-27.76,16.88-37.31,30.62a11.74,11.74,0,0,1-2.33,2.13c3.31-11.78,7.06-23.66,9.92-35.75,1.88-8,2.55-16.23,3.61-24.38.13-1-.73-2.19-1.12-3.28-3.51,2-6.73.58-10-.69-.59-.23-1.79.74-2.54,1.37a25.71,25.71,0,0,0-3.18,3.17c-6.42,7.65-12.73,15.39-19.23,23-2.1,2.45-4.66,4.5-7.52,7.22.33-5.43,1-10.91.58-16.31-.27-3.72-.06-7.37-.75-11.05-.6-3.25-1.56-6.42-2.32-9.63-.19-.81-.37-1.63-.53-2.45a11.8,11.8,0,0,1-.11-2.23c0-1.71-.08-3.43-.19-5.14q-.14-2-.35-4.09c-.52-4.92-1.81-5.44-6.71-2.46-1-2.71-1.74-5.36-2.92-7.8-.76-1.58-2-3.81-3.28-4s-3.24,1.54-4.27,2.9c-4.5,6-8.69,12.18-13.15,18.19-2.61,3.52-5.5,6.83-8.26,10.23a218,218,0,0,1-.69-27.82,68.29,68.29,0,0,0-4.1-26c-1-2.74-2.53-4.61-5.78-5.09a19,19,0,0,1-6.48-2.7c-2.93-1.72-5.31-1.36-7.1,1.41a34.47,34.47,0,0,0-3.64,6.93C570,175,566.22,186,562.44,196.94c-1.56,4.53-3.06,9.09-4.92,14.63l-1.68-4c-3.36-8.06-6.74-16.11-10.06-24.18-1.07-2.6-1.83-5.35-3.08-7.85-.52-1-1.61-1-2.61-.72-1.75.45-3.15,1.81-4.88.59-1.26-.89-2-2.32-3.26-3.22-2.49-1.79-4.5-1.79-6.64.3-3.46,3.4-6.62,6.89-8.48,11.6-4.06,10.31-8.57,20.44-12.9,30.64-.08-.28-.17-.56-.24-.84-.32-1.25-.66-2.5-1-3.76l-1.95-7.36c-1.3-4.91-2.58-9.82-3.8-14.74-3.07-12.38-10.58-22.46-16.84-33.21a4.66,4.66,0,0,0-.44-.61c-1.46-1.77-3-2.14-4.68-.28-.65.72-1.34,1.41-2,2.07-7-3.28-9.84-1.7-10.89,5.9-.78,5.68-1.88,11.36-2.11,17.07-.2,5.12-.25,10.25-.25,15.37,0,2.59,0,5.18,0,7.77q0,1.94,0,3.88c0,.55-.11,1.25-.15,1.91-6.19-6.4-12.24-12.94-18.61-19.15-5.05-4.92-10.45-9.48-15.84-14a4.86,4.86,0,0,0-2.87-.85c-1,.15-1.15,1.41-1.56,2.12a10,10,0,0,1-1.55,2.06,9.8,9.8,0,0,1-4.5,2.52c-.42.11-.76,1-.91,1.58C412,189.1,409.62,196,408.5,203s-1,14.06-1.39,21.8c-7.21-15.53-17-28-30.52-37.06a36,36,0,0,0-3.54-2.84,29.66,29.66,0,0,1-2.71-2.2c-1-.92-1.24-1.49-2.64-.86a5.45,5.45,0,0,1-2.55.4c-3.71-.38-5.13.51-5.26,4.3-.39,11.34-1,22.71,1.33,33.94,1.2,5.69,2.61,11.33,4.19,18.15-2-1.69-3.12-2.6-4.2-3.58-12.64-11.48-27.3-20-42-28.35-4.79-2.72-5.37-2.14-6.53,2.59-2,1.13-4.45,1.66-5.18,3.07-2.22,4.28-5.09,8.39-4.14,13.84,2,11.55,3.6,23.18,5.42,34.76.45,2.86,1.15,5.67,1.89,9.25-16.16-12.32-34.76-16.47-52.92-21.72a10.53,10.53,0,0,0-3.82-1.09,5.27,5.27,0,0,0-2.45.54,3.14,3.14,0,0,0-1.95,2.18,12.43,12.43,0,0,1-.32,1.65c-.74,2.13-3.71,1.9-4.33,4-.46,1.52.89,3.12,1.65,4.31,4.1,6.41,8.37,12.72,12.73,19,2.64,3.78,5.57,7.35,8.36,11l-41.75-9.44c.79,5.08-1.35,6.68-5.21,7.18-2.48.32-2.8,2.75-2.25,4.8a57.47,57.47,0,0,0,3.26,9.77c2.19,4.62,4.76,9.07,7.38,13.47,3.28,5.5,5.74,11.66,11.58,15.26.66.41.9,1.48,1.72,2.91-2.32-.74-3.82-1.32-5.37-1.69-14-3.33-27.89-6.79-41.92-9.83-1.39-.3-4.17-1.2-5.27.21-1.37,1.76.46,4.33-1.28,5.8a8.93,8.93,0,0,0-1.41,1.23,3.2,3.2,0,0,0-.66,1.6c0,2.19,2.14,3.85,3.41,5.38l5,6,10,12,2.7,3.24c.26.31,2.71,2.92,2.6,3.12l-.49.88L193.14,360a4.37,4.37,0,0,0-1.94-.28,9,9,0,0,0-1.61.3q-2.14.53-4.27,1.09a4.69,4.69,0,0,0-2.26,1c-.78.83.56,3.92.79,5-1.82,1.31-1.76,2.92-1.28,5q.43,1.85.94,3.69a18.08,18.08,0,0,0,.85,2.66c3.71,8.14,9.52,15.61,15.25,22.44,4.61,5.49,9.56,10.68,14.67,15.71-7.45.44-14.56.07-21.61.54-7.44.49-14.85,1.61-22.22,2.81a10.21,10.21,0,0,0-3.71,1.32,3.42,3.42,0,0,0-1.54,2.87,5.23,5.23,0,0,1-.83,2.83c-.58.7-1.57,1.08-1.84,2a2.79,2.79,0,0,0,.75,2.32,12.14,12.14,0,0,0,3.68,3,19,19,0,0,1,3,2.65,42.94,42.94,0,0,0,5,4.45,32.93,32.93,0,0,0,5.85,3.28c4.6,2.14,9.22,4.25,13.82,6.4a31,31,0,0,1,2.79,1.75l-20.2,2.93.1.83,3.9.86c-2.9.74-4.84,1.18-6.75,1.72-4.9,1.4-9.87,2.6-14.63,4.37-2.69,1-4.19,3.34-4,6.58a4,4,0,0,1-1.58,2.76c-2.36,1.89-2.4,3.72-.1,5.49q4.3,3.32,8.81,6.36c11.09,7.51,23.82,11.39,36.08,16.32,3.3,1.33,6.64,2.55,9.87,3.79-7.55,3.37-15.15,6-22,10-4.26,2.47-8.35,5.21-12.38,8-2,1.41-4,2.84-6,4.27l-3,2.14a10.2,10.2,0,0,0-2.64,2,2.1,2.1,0,0,0-.18,1.64,5.52,5.52,0,0,0,1.09,1.88,4.56,4.56,0,0,1,.74,1.16c.36,1-.37,1.33-.55,2.18a3.11,3.11,0,0,0,.34,2.18c.78,1.37,2.43,2.11,3.79,2.74a25.62,25.62,0,0,0,6.31,2.3c9.59,1.65,19.21,3.14,28.83,4.57,3,.45,6,.53,9.69.84-6.38,5.62-12.41,10.45-17.87,15.85s-10.22,11.2-15.29,16.85a7.47,7.47,0,0,0-1.22,1,11.16,11.16,0,0,0-1.85,3.12c-1.54,3.52-2.81,7.56-1.39,11.12,2.69,6.78,11.15,6.14,17.08,6.14,1.09,0,10.19-.64,10.48,0l.47,1c.21.47-5.92,5.94-6.56,6.58l-6.78,6.8c-2.17,2.18-4.67,4.26-6.65,6.59-1.82,2.15-3,5.4-4.09,8a4.73,4.73,0,0,0-.44,2,7.77,7.77,0,0,1-.35,2.7c-1.51,3.18.07,4.17,2.88,4.24a56.1,56.1,0,0,0,8.6-.14c11.39-1.51,22.76-3.18,34.13-4.85,2.48-.36,4.93-1,7.4-1.46-1.69,2.44-4.18,3.75-5.74,5.77-5.42,7-10.71,14.13-15.67,21.46-2.32,3.44-3.87,7.42-5.59,11.23-.91,2-.78,4.35,1.61,5,1.65.46,3.47,1.16,4.41,2.69.73,1.19.35,2.79,1.16,3.93a2.06,2.06,0,0,0,2.22.72l3.84-.48,15.1-1.89,20.46-2.56c-3.44,3.64-6.75,6.85-9.71,10.35q-7.62,9-14.83,18.32a5.28,5.28,0,0,0-.84,4.3c.51,1.39,1.7,2.36,2.56,3.5a18.26,18.26,0,0,0,2.91,3.41,7.51,7.51,0,0,0,4.11,1.78,4.72,4.72,0,0,0,.63,0h.05a2,2,0,0,0,.46-.11,67.37,67.37,0,0,1,7.41-1.85l7.56-1.89,15.12-3.79,4.08-1c.88-.22,1.8-.27,2.67-.53a62.84,62.84,0,0,0,9.81-3.62c1.44-.71,2.83-1.5,4.22-2.31l2.2-1.29c.37-.22,2.25-1,2.34-1.35-.34,1.3-.5,2-.69,2.64-2.88,10-6.16,20-8.52,30.18-1.61,6.92-4.64,13.88-.87,21.38,1.5,3,2.39,5.65,6,5.84.94,5.65,1.49,6.12,6.82,3.87,4.55-1.92,8.9-4.34,13.29-6.63,8.17-4.26,16.38-8.46,24.43-12.94,3.51-2,6.68-4.53,10.12-6.91.18.66.33.91.28,1.12a12.09,12.09,0,0,1-.61,2.15c-6.47,15-8.7,30.9-9.52,47.06-.16,3.09,1.6,5.88,5.12,5.32a36.72,36.72,0,0,0,10.83-3.46,91.89,91.89,0,0,0,30.82-28.37,56.69,56.69,0,0,0,2.93-5.57c.11-.21.22-.43.33-.65a4.8,4.8,0,0,1,.93,2.21c0,2.35-.61,4.72-.54,7.07.26,9.3.36,18.64,1.26,27.89.29,3,2.74,5.8,4.43,8.55.73,1.18,2.48,1.82,3,3,1.66,3.91,2.69,4.34,6.14,1.61,1.91-1.52,3.52-3.43,5.48-4.86,4.4-3.2,9.14-6,13.39-9.36C425.1,792.29,431,787,437,781.8l9.89-12.44c-2.26,16-4.27,31.68-4.29,47.57,1.37-9.63,2-19.36,3.58-28.95,1.67-10.44,2.71-21.32,6.55-31a411.66,411.66,0,0,0,19.41-64.39c.13-.61.34-1.21.52-1.82a8.58,8.58,0,0,1,.51,3.75c-.42,7.81-1.26,15.63-1.18,23.44.06,5.83,1.31,11.66,2,17.48,3.23,26.46,8.19,52.53,17.49,77.61A40.36,40.36,0,0,0,496.6,822c3.77,5.35,5,5.34,10.26,1.64,1.23-.87,4-1.63,4.56-1,3.22,3.25,4.07,1.52,4.77-1.7a8.85,8.85,0,0,1,1.33-2.24c3.22-5.49,6.54-10.92,9.62-16.49,2.27-4.1,4.23-8.38,6.7-13.31.52,1.65.85,2.53,1.07,3.44,3.48,14.57,6.87,29.17,10.46,43.71a37.08,37.08,0,0,0,3.49,8.64c.67,1.23,2.6,2.82,3.65,2.61,4.45-.85,9.18-1.61,13-3.8,2.43-1.38,4.28-5,5-8,2.36-9.92,4.31-20,6-30,1-6,1.11-12.05,1.72-19.28l15.9,25.47.19.38a13.77,13.77,0,0,0,1.2,1.85l.15.23s0,0,0,0c.79,1,1.67,2,2.55,3a71.53,71.53,0,0,0,6.61,6.73,17,17,0,0,0,5.26,3.51,6.83,6.83,0,0,0,6.11-.45c2.28-1.55,2.94-4.56,3.35-7.29.66-4.44,1.16-8.9,1.54-13.37.29-3.4.48-6.8.67-10.21.18-3.1.48-6.19.76-9.28h0l1.61-30.09c2.79,3.67,5.05,6.43,7.08,9.35,5.85,8.41,11.49,17,17.43,25.3,3.47,4.87,4.54,4.91,9.55,1.83.36.23.78.47,1.17.76,3.47,2.51,4.79,2.08,5.12-2.23a75.29,75.29,0,0,0,0-13.07c-1.6-16.11-3.78-32.14-8.19-47.93a66.89,66.89,0,0,1,5.36,7.28c9.47,14.13,23.13,23.64,36.64,33.33a4.33,4.33,0,0,0,2.06.77,61.59,61.59,0,0,1,6.3.36c1.91.36,2.94.18,2.89-2,0-1.12,1.7-.44,2.27-.59a1.43,1.43,0,0,0,.88-.71c.12-.21,0-1,0-.5v-.22c.4-18.19-4.12-35-6.66-52.64,1.41,1,2.3,1.65,3.14,2.32,7.72,6.13,15.38,12.34,23.17,18.37,3.61,2.79,4.49,2.47,7.27-.76.94-1.08,2.77-1.32,3.32-2.76.36-1-.49-2.1-.87-3l-1.52-3.45-6.13-13.91-7.6-17.23c5.61,2.76,10.93,5.46,16.33,8,6.1,2.88,12.19,5.8,18.43,8.35,4.59,1.88,9.4,3.27,13-2.12.32-.48,1.3-.64,2-.73,4.36-.56,5-1.34,3.5-5.44-.09-.24-.19-.47-.29-.71-2.05-9-4.19-17.75-8.48-26s-9.56-16.19-14.37-24.26c8.64,3,16.7,5.94,24.84,8.65a48.3,48.3,0,0,0,9.78,2.36c5.55.62,6.24,0,7.91-4.73l3.4-1.16a1.55,1.55,0,0,0,.5,0,.77.77,0,0,0,.66-.55,1.07,1.07,0,0,0,0-.45,10.79,10.79,0,0,0-2.08-4,75,75,0,0,0-6-6.18q-4.94-5.08-10.13-9.91a227.56,227.56,0,0,0-21.44-17.66,44.6,44.6,0,0,0-4.82-2.68l-.86,1.23q1.62,1.17,3.23,2.36,11.47,8.51,22.18,18,5.4,4.78,10.61,9.77,2.63,2.52,5.21,5.09a11.53,11.53,0,0,1,1.95,2.27,14.16,14.16,0,0,1,.5,1.52,8,8,0,0,0-2.66.11c-.88.27-2.22,1.15-2.22,1.77,0,3.32-2.1,3.63-4.54,3.4a27.58,27.58,0,0,1-6.25-1c-8.62-2.92-17.18-6-25.76-9.07A22.42,22.42,0,0,1,749.86,643c-5.89-8.22-12.2-16.14-18.39-24.14-1.78-2.31-3.74-4.48-5.62-6.71,18.76,8.07,35.49,19.41,52.74,29.86a10.41,10.41,0,0,0-2.78-3.13,76.93,76.93,0,0,0-12.71-8c-13.59-7.12-26.82-15-39.92-22.95-4.41-2.69-8-6.71-12-10.12l.61-.86c.91.28,1.84.5,2.72.85,10.78,4.29,21.35,9.19,32.36,12.76,15.43,5,31.15,9.11,46.8,13.4,6.79,1.86,13.8,3.44,20.72,4.62a1.92,1.92,0,0,0,1.07,0c.75-.32,1.14-1.69,1.54-2.35a6.08,6.08,0,0,1,1.81-1.94,13.3,13.3,0,0,1,3.92-1.38,2.79,2.79,0,0,0,1.46-1,3,3,0,0,0,.49-1.29c.4-2.41-1-4.11-2.42-5.86q-2.36-3-4.8-5.86c-3.24-3.88-6.54-7.7-9.81-11.56l-.78-.93.09.09c-4.11-4.63-8.15-9.32-12.36-13.85a34.56,34.56,0,0,0-4.66-3.6l.77-1.74c.21-.49,4.86-.85,5.54-1l5.82-1c3.71-.65,7.83-.9,11.42-2,5.44-1.71,11.07-2.81,16.44-4.76,1.9-.69,4.91-1.39,3.53-4-.72-1.39-2.57-2.09-3.83-2.76l-5.05-2.7-9.87-5.27-10-5.32-5.16-2.76c-.63-.34-4.42-2.89-4.93-2.63,1.12-.57,1.53-.84,2-1,15.24-5.3,28.67-13.46,39.81-25.23a4.92,4.92,0,0,1,1.55-1c6.9-3.12,7.37-4.7,3.09-10.62A6,6,0,0,1,841.79,504.4Zm-48.73-55.68a132.8,132.8,0,0,0,14.31,4.43c5.62,1.28,11.25,2.47,16.9,3.63,4.87,1,10.52,1.3,14.57,4.45a4,4,0,0,1,1.07,1.12,3.56,3.56,0,0,1,.39,1.69,7.64,7.64,0,0,1-2,5.3c-4,4.34-9.54,6.78-14.77,9.48a86,86,0,0,1-17.49,7c-7.74,2-15.11,1.15-22.59-1.05l5.67-.43-54.79-3-.21-.73,13-4.19c.08-.24.09-1,.43-1.2,5.14-3,10.51-5.57,15.45-8.84,8-5.29,15.83-10.92,23.58-16.6A6.32,6.32,0,0,1,793.06,448.71Zm18.86-48.91c1.76-.35,3.56-.51,5.33-.76v0a18.24,18.24,0,0,1,6,1.34,9.17,9.17,0,0,1,4,2.81c2.79,3.76-.87,8.26-3.4,11-4.76,5.22-9.75,10.25-14.91,15.08-3.91,3.67-8.37,6.75-12.31,10.39s-8.43,6-12.5,9.24c-14.56,11.62-30.15,21.7-47.69,28.47-7.42,2.87-14.47,7.1-22.11,8.93a203.44,203.44,0,0,1-33.25,5.06c-27.4,1.88-55,1.14-82.32,3.11a22.84,22.84,0,0,0-1.5-5.38,23.76,23.76,0,0,1-2-8.85c-.11-2.22.45-3.26,2.66-4.09,9.32-3.51,18.56-7.27,27.8-11,2-.79,3.85-1.79,5.73-2.77s3.68-2,5.52-3.06l-.27-.42-41.91,17c-.6-3.55.12-5.15,3.14-5.94a185.86,185.86,0,0,0,20.43-6.14c17.55-6.88,35-14.13,52.36-21.35,11.84-4.91,24.21-8.67,34.75-16.43,1.87-1.38,4.69-1.53,7.11-2.08s4.73-.53,6.94-1.27c10.39-3.47,20.51-8,31.12-10.5C770.93,407.44,791.48,403.85,811.92,399.8Zm-43.67-29.48c6.31-1.62,12.59-3.37,18.92-4.94,5.81-1.44,11.77-3.54,17.82-2.42a2,2,0,0,1,.66.2c1.91,1.09.13,4.75,2.71,5.62,1.33.45,3.74-.76,3.89,1.52a4.22,4.22,0,0,1-1.17,2.7,93.06,93.06,0,0,1-12.19,12.61c-3.7,3.28-7.71,6.19-11.28,9.62a65.37,65.37,0,0,1-5,4.54c-.51.4-3,2.81-4.57,4.1-4.1.71-8.18,1.47-12.25,2.33-16.79,3.56-33.24,8.74-49.84,13.21l-.47-1c3.95-2.94,7.56-6.6,11.91-8.68,12-5.76,24.4-10.83,36.6-16.24,3.29-1.46,6.47-3.2,9.71-4.78,4.34-2.12,8.69-4.21,13-6.32l-.8-1.63c-17.68,9.1-35.19,18.59-54.14,24.94a4.83,4.83,0,0,1,1.25-1.9c8.69-9.15,17.48-18.2,26-27.49C761.69,373.48,764.49,371.29,768.25,370.33Zm-42.15-70c4.95-3.11,9.77-6.41,14.6-9.71,2.41-1.65,4.82-3.31,7.26-4.92,1.1-.73,4.11-3.94,5.59-3,.68.44.27,1.53.59,2.27a2,2,0,0,0,1.46,1,5.44,5.44,0,0,1,1.73.52c2.31,1.46-1.73,6-2.61,7.55-1.91,3.29-3.83,6.58-5.82,9.82-3.4,5.52-7.15,10.83-10.47,16.4-3.21,5.38-8.55,7.29-14.55,9.77l2.59-4.76c-4.88,5.72-11.1,9.8-17.3,13.89-1,.65-1.94,1.33-3.84,2.63,3.06-7.35,5.71-13.62,8.28-19.92,1.41-3.47,3.14-6.89,3.93-10.51C718.66,306.17,721.8,303.07,726.11,300.37Zm-81.5-46.44c9.67-10.92,19.45-21.73,29.14-32.63,1.92-2.16,3.41-3.8,6.29-.94.67.67,2.22-.16,2.89-.44s2.29-1.25,2.91-.71c.48.41,0,2-.1,2.58-.14,1.24-.27,2.48-.41,3.72-.27,2.49-.56,5-1,7.45-.21,1.28-.46,2.56-.75,3.83-2.25,9.84-4,20.06-8.08,29.14-4.62,10.19-11.21,19.6-17.74,28.78-6.2,8.72-13.43,16.72-20.21,25L633.29,325c1.8-9.73,3.75-18.6,5-27.57,1.92-13.35,3.36-26.76,5.07-40.14A6.53,6.53,0,0,1,644.6,253.93Zm-42.75-32.17C606.1,216,610.08,210,614,204c2-3,4-6,6-9,1.64-2.42,2.88-5.57,5.55-7,.56-.3,1.32-.51,1.78-.07a1.67,1.67,0,0,1,.37.79,30.65,30.65,0,0,0,1.67,5.06c.95,2,2,4.34,3.65,5.66.9.71,3.22-.4,5.32-.76-.07,0,1.09,8.81,1.19,9.61.69,5.57,2,11,2.79,16.54a84.69,84.69,0,0,1,.74,18.7c-.47,6.45-1.36,12.86-2.06,19.29q-1.65,15.21-3.68,30.37c-1.32,9.71-3.17,19.65-6.81,28.67-8.72,21.58-21.42,41.18-34.29,60.44-9.74,14.58-21.53,27.78-32.36,41.63a23,23,0,0,0-2,3.63c1.93-1,4.17-1.76,5.65-3.25,16-16.21,28-35.38,39.83-54.65,6.32-10.32,12-21,18-31.53a11.14,11.14,0,0,1,1.29-1.46v3.43c8.93-17.44,21.95-31.15,34.57-45.18l.86.58-1.09,3.7a6.28,6.28,0,0,0,1.41-.73,6.77,6.77,0,0,0,1.36-1.77c3.54-8.26,10.48-13.56,16.91-19.22,9.53-8.4,19.28-16.55,29-24.72,1.71-1.43,4.09-2.14,5.6-3.72,3.88-4.09,8.66-2.17,13-2.79l.49,4.44,3.65-2.11a8.19,8.19,0,0,1,0,2.09c-1.1,3.39-2.6,6.69-3.33,10.15-1.44,6.81-5,13.23-4,20.51-6.23,21.34-12.57,42.63-22.56,62.61-2.48,5-5,9.9-7.55,14.85,3.21-4.06,5.55-8.6,8.2-12.94a11.15,11.15,0,0,1,4.09-4c7.77-4,15.53-8.06,23.57-11.45,8.6-3.63,17.26-7.11,25.93-10.58l12.86-5.14c3.74-1.5,8.27-4.42,12.38-4.22a5.13,5.13,0,0,1,3.93,1.89c.73,1,1,2.34,1.93,3.13,1.17,1,2.9.73,4.39,1.06a.9.9,0,0,1,.45.21c.25.25.16.66.06,1q-.71,2.37-1.23,4.79c-.31,1.42-.44,2.79-.61,4.21a14.16,14.16,0,0,1-1.54,4.24c-.76,1.51-1.61,3-2.5,4.41-2.48,4-5.31,7.78-8,11.61-5.5,7.67-11.35,15.08-17.46,22.27s-12.52,14.17-19.09,21c-21.23,21.94-45,40.23-73.76,51.48-19.18,7.51-38.28,15.21-57.51,22.59-5,1.93-10.42,3-14.94,4.22l-7.19-15.1c2.85-3,5.49-6,8.36-8.74s5.84-6,9.34-8c19.22-10.88,36.23-24.77,53.27-38.62,4.44-3.61,8.53-7.65,12.78-11.49l-.57-.62-13,10.83c8.82-10.73,17.8-21.2,26.24-32.09s16.81-22.08,21.67-35c-6.46,9.4-12.84,19.09-19.63,28.48a250,250,0,0,1-55.25,56.08c-5.63,4.11-11.15,8.38-16.68,12.61-2.83,2.17-5.37,4.81-8.43,6.56-6.49,3.72-13.19,7.1-19.89,10.45-5.69,2.85-5.75,2.74-9-3.07,11.08-8.46,22.34-16.72,33.21-25.47a230.5,230.5,0,0,0,30.24-28.93c-8.55,7.44-16.68,15.36-25.43,22.52-12.27,10-25,19.44-37.53,29.2a3.47,3.47,0,0,1-4.7.19c-2-1.42-3.94-3.7-6.14-4-4.13-.64-4.87-3.56-6-6.49-3.49-1.81-6.94-3.46-8.81-7.43a10.35,10.35,0,0,0-8-6c-3.92-.66-7.71-2-11.62-3.11.37-1.8.55-2.9.83-4,5.14-20.19,10.08-40.44,15.5-60.55,5-18.54,10-37.13,16.06-55.33,3.25-9.73,8.68-18.76,13.35-28C586.1,249.21,592.41,234.66,601.86,221.76ZM504,214.66l0,.18,0-.09Zm9.83-18.15a87.94,87.94,0,0,1,11.35-21.35c2.56-3.43,3.72-3.14,7-.5,1.61,1.28,3.87,2.47,5.81,2.42,2.29-.06,3.11.75,3.86,2.52,1.62,3.79,3.36,7.53,5,11.3,9.59,22,16.28,44.58,12.65,69.07-.84,5.69-1.15,11.45-1.71,17.18a10.87,10.87,0,0,0,1.8-5.31c1.17-11.31,2.82-22.6,3.2-33.94.2-5.84-1.6-11.83-3.07-17.6-.89-3.48-1.68-6.63,0-10.09s2.91-6.88,4.26-10.37q7.29-18.87,14.52-37.77c1.27-3.32,3.09-4.78,6.37-2.07a3.18,3.18,0,0,0,2.07.67c4.58-.36,6.57,2.47,7.63,6.23a103.57,103.57,0,0,1,4.13,29.56c-.1,7.49.09,15-.06,22.46a11.42,11.42,0,0,1-1.44,5.49c-3.11,5.12-6.59,10-9.83,15.06a119.78,119.78,0,0,0-11.71,24.09c-3.66,10-9.06,19.42-13.58,29.14-4.28,9.21-5.27,19.4-8.31,29C547,343,542.39,364.93,537,386.62c-1.71,6.89-3.09,13.86-4.54,20.81-.54,2.6-1.6,4.89-4.6,4s-1.26-3.31-.81-5.06c.93-3.63,2-7.21,3.15-10.79,7.45-24,16.13-47.56,20.56-72.37,1.86-10.41,3.51-20.87,5.26-31.3l-.51-.08-11.45,53.08-.81-.18,2.21-12.37a45,45,0,0,0-2.42,5.77c-6.65,23.47-13.22,47-19.7,70.06l-8,1.44c.29.36.57.67.84,1a8.3,8.3,0,0,0-1.39.41,26,26,0,0,0-2.67,1.37c-3.35-2.73-9-4.18-12.57-3a41.6,41.6,0,0,1-4.61,1l1.47,1.44-.31.27a49.11,49.11,0,0,0-5.86-1.78c-2.34-.47-2.79-2.22-1.84-3.53,3.16-4.4,2.44-9.36,2.37-14.12q-.42-30.68-1.26-61.35c-.2-7.9-1.66-15.66.08-23.71,1.35-6.26.52-13,1.18-19.41C494.05,256.51,502.5,226.15,513.84,196.51ZM460.65,208c.54-3.65.56-7.38.81-11.06q.52-7.76,1-15.53.24-3.88.49-7.76c.16-2.52.49-5.09.49-7.61a25.33,25.33,0,0,1,.93-6.27c.7-2.1,2.24-4.88,4.71-3.38,3.66,2.22,5.91,1.65,8-2.51,1,1.18,1.78,1.9,2.38,2.73,8.52,11.76,13.89,25,17.94,38.8,1,3.56,2,7.13,3.06,10.69a70.39,70.39,0,0,0,3.2,10.05c-3.56,13.62-7.17,27.24-10.67,40.88-3.54,13.8-6.64,27.67-5.31,42.09a8.87,8.87,0,0,1-.67,4.53c-.17-1.46-.32-2.93-.51-4.39-2.77-20.66-5.55-41.31-12.35-61.15-3.38-9.86-3.25-20.18-3.91-30.36-.62-9.59-.47-19.24-.64-28.86a16.29,16.29,0,0,0-.66-5.46V222l-8.49-13A3.84,3.84,0,0,0,460.65,208Zm-96,19.09c-3-13.13-3.56-26.46-3.34-39.86,0-2.6.91-4.25,3.87-3.25a3.23,3.23,0,0,0,2.24.12c.52-.24.68-.69,1.39-.5a3.23,3.23,0,0,1,1.18.71l2.19,1.81a1.79,1.79,0,0,0,.16.19,19.63,19.63,0,0,0,2.25,2c11.27,8,20,18.38,27.58,29.82,3.39,5.13,5.46,10.37,5.34,16.93q-.47,26.79.59,53.59c.31,8.24,2.18,16.42,3.34,24.63l1-.13c-.79-8.94-2.1-17.88-2.27-26.83-.43-22.24-.32-44.48-.45-66.73-.06-10.25.62-20.45,3.07-30.42.63-2.55,2.21-6.53,3.88-6.82a6.5,6.5,0,0,0,4.24-2.62c.65-.88.92-2,1.56-2.87.27-.37.63-.86,1.12-.79s1.28.91,1.59,1.23c9.06,9.48,18,19.1,27.17,28.42,6.38,6.46,12.26,13.14,15.22,21.94,1,3.07,2.4,6,3.59,9.05,9.1,23.21,12,47.72,14,72.21,2.74,32.29,1.59,64.69.64,97.06a29.28,29.28,0,0,1-.89,5.25c-.48,0-1,.1-1.43.18,1.35,1.51-.63,4-2.66,4.07S477,414.4,475,413.86c-4.43-1.22-9,1-13.07,3.12l-.15.08-.08-.09c-2.78,1.55-4.36,0-5.07-2.37-2.83-9.69-6-19.33-8.11-29.18-4.35-20.17-8.1-40.46-12.1-60.71l-.41.05,9.29,56c-9.63-28-15.29-57-20.93-86,3.52,20.77,7.37,41.47,12,62A443.92,443.92,0,0,0,455,417.55a5.71,5.71,0,0,1-3.1-2.48c-3.45-6.64-6.78-13.34-10.15-20-6.15-12.14-12.86-24-18.26-36.51-3.85-8.88-5.81-18.56-8.85-27.8-3.39-10.27-3.85-21.2-8.68-31.24-9.8-20.39-20.88-39.8-36.45-56.4a7.85,7.85,0,0,1-1.64-3.26Q366.11,233.52,364.65,227.13ZM232.34,315.53c-4.42-6.6-7.71-14-11.31-21.09-.8-1.59-2-4.22,1.11-4.81,3.52-.67,5.49-2.59,6.26-5.84,35.68,8,69.94,19,101.14,38.36a42,42,0,0,0-7.54-6.89c-13.62-8.76-28.4-15.17-43.54-20.75-4.19-1.54-7.82-3.06-10.48-7.29-4.85-7.69-10.66-14.77-16-22.15-1.05-1.45-2-2.94-3-4.43-.65-1-2.32-2.69-1.83-4a2.08,2.08,0,0,1,1.05-1.08,12,12,0,0,0,1.6-.67,3.27,3.27,0,0,0,1.14-2.22,7.07,7.07,0,0,1,.65-2.47,3.87,3.87,0,0,1,3.55-1.58,12.13,12.13,0,0,1,3,.64,40,40,0,0,0,6.13,2.77c14.29,5.1,29.08,8.85,42.19,17.08,4.13,2.59,5,5.79,5.81,10.07l-15.85-10-.52.82c6.16,4.79,13.57,8,19.42,14.36l-2.46.17c1.44,1.64,3.22,3.1,4.19,5,1.93,3.76,3.45,7.73,5,11.67a275.05,275.05,0,0,0,24,47c7.19,11.21,15.23,21.92,23.47,32.39,7.39,9.38,15.55,18.15,23.42,27.15a40.11,40.11,0,0,0,3.71,3.33,9.29,9.29,0,0,0-2.22-4.35c-9.28-11.08-18.82-21.95-27.82-33.25A284.61,284.61,0,0,1,331,316.69c-4.12-8.81-7.11-18.16-11.41-26.87-3.07-6.21-6.1-12.12-7.06-19.21-1.94-14.34-5.14-28.52-6.78-42.89-.49-4.26,2.44-8.93,3.91-13.39a1.86,1.86,0,0,1,1.48-1c3.29.26,4.59-1.82,5.31-4.83a25.59,25.59,0,0,1,4.34,1.9c12.48,8.67,25.54,16.65,37.22,26.3,17.59,14.53,30.07,33.39,39.91,53.79,5.25,10.87,9.2,22.37,13.48,33.69,1.36,3.59,1.64,7.58,2.81,11.25,6.36,19.81,12.88,39.57,19.26,59.38,3.18,9.86,6.08,19.82,9.3,29.67.72,2.21.64,3.5-1.26,5.1a12.19,12.19,0,0,0-2.5,3.63,16,16,0,0,0-2.94,4.84,7.46,7.46,0,0,0-1.88.87c-2.74,1.81-5,4.32-7.52,6.56-3.43-2.79-7.21-6-11.15-9-1.43-1.08-3.57-1.28-4.86-2.45-8.57-7.78-16.85-15.86-25.5-23.55q-18.44-16.39-37.3-32.31c-3.77-3.18-8.21-5.56-12.35-8.3l-.63.93a576,576,0,0,1,49.76,40.76l-.58.76-6.52-4.49a5.19,5.19,0,0,0,1.82,2.2c4,3.18,8.09,6.28,12,9.56,4.2,3.5,8,7.53,12.47,10.64s7.47,7.34,12.85,9.52c4.77,1.93,8.35,6.82,12,10L419.81,459c-.47-.27-1.41-.83-2.37-1.35l-31.91-17.34c-11.41-6.2-23-12.11-34.2-18.66-22.18-13-42.44-28.6-62-45.25-6.17-5.26-13.4-9.38-19.19-15A283,283,0,0,1,232.34,315.53Zm176.09,142.3.46-.58,10.69,7.18L414,468.35l-6.31-7.49,6.58,2.83.32-.85ZM193.16,337.15a44.53,44.53,0,0,0-4.65-4.31c-.11-1.34,1.2-2,2.1-3.1a3.67,3.67,0,0,0,.63-3.06c-.13-.7-.52-2,.34-2.4.45-.23,1,.09,1.54.1a22.33,22.33,0,0,1,4.79.14c12.89,3,25.79,6,38.56,9.43a34,34,0,0,1,10.72,5.57c2.45,1.78,3.92,4.85,6.13,7q12.06,12,24.35,23.73c4.27,4.07,8.8,7.87,13.21,11.8-1,.64-1.47.64-1.87.45-22.6-10.72-46.53-16.54-71.27-19.4a7.56,7.56,0,0,1-4.37-2.41C206.53,352.95,199.94,345,193.16,337.15Zm-6.28,44.62c-.08-.12-.17-.23-.26-.35a22.43,22.43,0,0,1-1.44-5.88c-.26-2.46.51-4.34.62-6.66.09-2-1.38-4.08,0-5.47,1.78-1.77,4.14-2,6.49-1.73a19.39,19.39,0,0,0,3.78,1.17c7.41,1.15,14.82,2.28,22.26,3.16,22.69,2.7,44.84,7.58,65.89,16.65,6.16,2.65,12.66,5.21,17.83,9.3,24.59,19.47,50.67,36.47,79,50a14.37,14.37,0,0,1,3.52,2.08c3.85,3.48,7.56,7.12,11.37,10.64,5.34,4.94,10.73,9.84,16.09,14.75-6.62-3.92-12.71-8.43-19.09-12.48s-13.09-7.81-19.74-11.53-13.56-7.49-20.48-11c-6.65-3.34-13.46-6.34-20.2-9.49l-.6,1.28c23.33,12,46.89,23.59,68.61,38.42-4.5-2.06-8.77-4.54-13.13-6.86s-8.86-4.61-13.37-6.77-9.28-4.34-14-6.32c-4.44-1.86-9-3.48-13.48-5.2l-.39,1c23.5,9.43,46.17,20.43,67.36,34.36-5.44,5.26-11.31,5.85-17.81,3.4a62.34,62.34,0,0,0-8-2.11q-17.31-4-34.64-7.94a2,2,0,0,0,1.49,1.52c14.76,3.75,29.52,7.52,44.3,11.2,5.37,1.34,5.38,1.24,5.31,6.64a29.62,29.62,0,0,0,.29,3.05c-6.38-1.29-12.44-2.23-18.34-3.77-27.79-7.27-55.59-14.51-83.27-22.16-18.75-5.18-36.8-12.31-52.56-24-9.61-7.13-18.76-14.89-27.87-22.66C209.57,407,196.57,396,186.88,381.77Zm221.41,118-27-10.3.23-.68c7.53,1,15.07,1.91,22.58,3,.64.09,1.38.93,1.7,1.6C406.53,495,407.1,496.7,408.28,499.74ZM183,442.88a33,33,0,0,1-10.7-6.49,55.21,55.21,0,0,1-4.33-3.86c-1.24-1.31-2.14-3.14-1.18-4.88l.06-.1a7.19,7.19,0,0,0,.87-1.44c.18-.56.06-1.19.24-1.75a2.36,2.36,0,0,1,1.33-1.36,14.68,14.68,0,0,1,2.5-.58c1-.25,2-.56,3-.81a30.84,30.84,0,0,1,6-1c11.69-.63,23.4-.87,35.11-1.17a5.17,5.17,0,0,1,3.16.91,142.89,142.89,0,0,1,14.26,12.86l-15.31-1.8-.15,1c2.73.38,5.47.69,8.19,1.15,3.68.63,7.74.6,10.92,2.24,4.88,2.51,9.14,6.21,14.11,9.71l-3,.4c7.32.09,11.59,6.11,17.72,8.45l-.29.91a82.62,82.62,0,0,0-8.55-1.21c-15.83-.64-31.67-1.28-47.51-1.61-4.23-.09-8-.62-11.81-2.72A88.29,88.29,0,0,0,183,442.88Zm-12.65,43.69a47.2,47.2,0,0,1-8.89-5.08c-1.45-1-2.88-2-4.32-3-1.09-.76-3.17-1.52-3.14-3s2.34-1.32,3.39-1.53a10.42,10.42,0,0,1,4.34-.24c19.92,4.52,40.17,6.45,60.47,8,8.19.62,16.4.9,24.6,1.33l.06-1c-4.82-.27-9.67-.27-14.45-.84-22.55-2.7-45.08-5.55-67.61-8.4a12.41,12.41,0,0,1-4.61-1.4c-1-.6-2.3-2-2.21-2.95s1.59-2.23,2.69-2.52c9.64-2.6,19.38-4.83,29-7.51,21.36-6,42.91-3.2,64.46-1.78,17,1.12,32.93,6.66,48.94,11.89,5.45,1.78,11.18,2.67,16.64,4.43,5.29,1.71,10.32,4.23,15.58,6,11.33,3.87,22.74,7.53,34.13,11.22,11.61,3.76,23.26,7.42,34.87,11.21,5,1.64,5.94,3.42,5,9-1.06,6.11.51,9.11,6.89,11.56-1.38,1-2.2,2-3.14,2.1-5.41.82-10.85,2-16.29,2q-44,.21-88.05-.15a169.25,169.25,0,0,1-25.39-1.66c-8.17-1.31-16.15-3.94-24.12-6.3-11.61-3.44-23.27-6.79-34.67-10.85C206.34,500.56,188.25,493.83,170.38,486.57Zm24.91,60.15c-6.66-1.07-13.3-2.23-19.9-3.63a19.88,19.88,0,0,1-4.46-1.64c-.65-.31-1.28-.68-2-.95s-1.24-.38-1.56-1a2.25,2.25,0,0,1-.21-1c0-1.51.34-3.15-.44-4.43-.29-.48-.75-.92-.77-1.48a2,2,0,0,1,1-1.48c1.38-1,3-1.8,4.42-2.78,1.62-1.11,3.24-2.23,4.84-3.37a117,117,0,0,1,30.21-16c5.07-1.75,9.77-2.1,14.91-.16,6.77,2.55,13.77,4.48,20.67,6.69a10.75,10.75,0,0,1,2.94,1.39c-23.74,2-46.75,7.13-69.39,14l.16,1.12c1.54-.26,3.1-.45,4.63-.78,18.31-3.88,36.59-7.92,54.94-11.6a53.9,53.9,0,0,1,29.53,2.2c.54.2,1.06.47,1.84.83-15.59,4.81-30.5,11.05-47.14,9.5l.23,1.39,20-1.72c-6.64,5.23-14.62,2.12-21.89,4.57h15.18c-.91,1-1.4,1.59-2,2.1a12.28,12.28,0,0,1-1.52,1.09C214.34,549.76,214.33,549.8,195.29,546.72Zm-2.88,55.84c-2.32.13-4.63.56-6.94.88a2.83,2.83,0,0,0-.82-.08,8,8,0,0,1-6.66-4.28,11.52,11.52,0,0,1-.87-8.07,17.37,17.37,0,0,1,1.48-3.95c.33-.65,1.68-2.17,2.12-3.06.57-.53,1.14-1.05,1.68-1.61,3.74-3.85,7.05-8.24,11.26-11.47,13.55-10.42,27.36-20.52,41.21-30.56,13.64-9.89,28.73-15.6,45.84-14.49,7.35.48,14.64,1.68,22,2.27,32.58,2.63,65.2,1.41,97.8.52a50.33,50.33,0,0,0,9.6-1.5c4.78-1.08,5.42-.62,5.13,4.66-7.3,1.53-14.32,4.65-22.25,3.73-2.09-.24-4.52,1.49-6.63,2.63s-4,3.27-6.3,4.1a395.38,395.38,0,0,0-65.83,31.45c-7.64,4.49-14.73,10.25-22.84,13.55a187.15,187.15,0,0,1-54.51,12.9C222.09,601.44,207.23,601.75,192.41,602.56Zm36.82,32.33c-13,1.92-25.93,3.92-38.93,5.68a35.21,35.21,0,0,1-5.77.17c-1.4,0-4.14.51-4.06-1.62a8.56,8.56,0,0,1,.54-2c.3-1,.3-2.11.56-3.14a10.9,10.9,0,0,1,1-2.44,40.23,40.23,0,0,1,6.27-8.3q2.24-2.43,4.62-4.79c3-3,5.93-5.91,8.92-8.85,3.14-3.09,6.38-5.2,11.34-5.26a209.63,209.63,0,0,0,57-8.08c4.71-1.38,9.38-2.88,14.07-4.33a5,5,0,0,1-1.89,2.57c-6.24,4.34-12.84,8.25-18.71,13-8.6,7-16.84,14.51-24.93,22.12A18.15,18.15,0,0,1,229.23,634.89ZM338.41,743.73c-11.35,7.87-23.69,14.33-35.7,21.22a22.84,22.84,0,0,1-4.64,1.88c-1.21.38-2.86,1.41-4,.51a6.24,6.24,0,0,1-1.29-1.7,3.24,3.24,0,0,0-1.52-1.45,11.46,11.46,0,0,0-1.3-.24,3.52,3.52,0,0,1-2.22-1.87c-.66-1.27-.63-2.68-1-4s-.82-2.74-1.16-4.13a16.83,16.83,0,0,1-.21-8.59c3.14-11.3,6.06-22.67,9.18-34,1.37-5,2.46-10.12,4.68-14.7,3.66-7.54,8.27-14.6,12.25-22a304,304,0,0,1,49.45-67.06c7.42-7.69,15.28-15,22.91-22.47,3.45-3.39,6.84-6.87,10.25-10.3a11.8,11.8,0,0,0-5.11,2.72,329.8,329.8,0,0,0-71.28,82.38c-4.78,7.86-10.68,15.33-13.86,23.81-3.55,9.45-10.3,14-18.52,17.86-1.25.58-2.49,1.16-3.69,1.82-.86.48-1.65,1.09-2.47,1.64l.49.8,16.88-8.5a12.36,12.36,0,0,1-3.91,7.63,25.08,25.08,0,0,1-3.78,2.13,38.8,38.8,0,0,1-5.16,2.63c-.89.37-1.73.88-2.61,1.2s-2.07.53-3.09.83c-9.79,2.86-19.87,4.84-29.78,7.3-3.13.78-6.21,1.81-9.29,2.77a5.8,5.8,0,0,0-1-.36,9,9,0,0,1-2.41-1.4,24.64,24.64,0,0,1-3.57-3,8.26,8.26,0,0,1-2.2-4c-.35-1.85,2.72-4.3,3.83-5.63,1.6-1.92,3.21-3.82,4.87-5.69,5.22-5.88,10.92-11.38,15.67-17.6,2.15-2.81,4.51-3.66,7.49-4.64,14.69-4.84,29.39-9.7,43.89-15.06,4.46-1.65,8.32-4.89,12.46-7.4l-.6-.93a242.83,242.83,0,0,1-24.21,10.45,281.79,281.79,0,0,1-27.36,8.51c-9.22,2.38-18.55,4.33-27.94,6q-7,1.22-14.12,2.2-3.54.49-7.08.93c-.94.12-1.83.57-2.63-.09a8.11,8.11,0,0,1-1.4-2.15,7.49,7.49,0,0,0-2.37-2.7c-4.74-2.76-4.77-2.72-2.07-7.61C220.06,650,238.35,634,255.61,617c7.66-7.54,17.66-11.42,26.22-17.55,36-25.77,74.57-46.47,116.88-59.89.82-.26,1.65-.5,2.57-.78l.25,2.65c3.34-1.79,6.36-3.41,9.4-5,5.74-3,8-1.9,8.52,4.36a4.8,4.8,0,0,0,.24,1.47c1,2.21,0,3.68-1.9,4.58-2.05,1-4.37,1.47-6.32,2.61-2.89,1.7-5.5,3.88-8.33,5.71q-19.31,12.51-38.69,24.92c-3.64,2.34-7.34,4.59-11,6.88l.67,1.09,21.8-12.9.76,1.19-48.57,32.6a32.19,32.19,0,0,0,7.49-3.26q20.53-13.63,40.88-27.52c6.59-4.52,12.8-9.61,19.44-14,6.48-4.33,11.12-11.19,19.06-13.55,2.43-.72,4.59-2.37,6.88-3.59l.78,1.12a27,27,0,0,1-2.66,2.51c-8.71,6.29-17.6,12.35-26.15,18.85-6.68,5.09-13,10.71-19.42,16.09l.8,1L421,551.35l12.41,15.43-8.15,13.05-.63-.31,2.14-6.45-1-.41-10.44,21,1.68,1c7.74-8,12.33-18.23,17.8-27.8l7.49,3.25-.44.91-3.22-1c-.49,1.06-1,2-1.41,3.06-4.25,10.08-8.44,20.19-12.72,30.25-9.3,21.85-18.47,43.75-28,65.47A204.12,204.12,0,0,1,384,692.67C372,712.45,357.6,730.44,338.41,743.73ZM466.62,707.8c-5.12,20.48-11.34,40.43-22.19,58.62A64.34,64.34,0,0,1,433,780.09c-9.66,9-19.75,17.61-29.73,26.3-1.92,1.67-4.13,3-6.24,4.49-1.83-3.47-1.85-3.44-6.31-6.55a3.07,3.07,0,0,1-.91-1.91c-1-6.5-2.71-13-2.86-19.51-.19-8.21.66-16.47,1.45-24.68,1.8-18.78,3.59-37.56,5.88-56.28,1.18-9.61,3.42-19.09,5.17-28.62-2.72,7.13-5.35,14.37-6.32,21.82-2.63,20.18-4.53,40.46-6.83,60.68-.18,1.57-1.25,3-1.91,4.55h0l-.07-.08,0,.09a16.39,16.39,0,0,0-2.32,3.46c-1.12,1.74-2.47,3.38-3.76,5a106.51,106.51,0,0,1-8.08,9.05,102.8,102.8,0,0,1-18.93,14.9c-2.19,1.34-4.35,3.94-7,4.32a10.53,10.53,0,0,1-1.83,0,2.18,2.18,0,0,0-.86.12.82.82,0,0,0-.52-.11c-5.53,1.27-4.68-2.33-4.49-5.45,1-17.5,5.28-34.26,11.55-50.56a7.26,7.26,0,0,1,2-2.63,184.49,184.49,0,0,0,33.34-39.32c6.65-10.37,13-20.77,16.4-33,5-17.88,13-34.65,22.19-50.8.3-.54.77-1,1.11-1.5l18.67-28.4q3-4.61,6.09-9.21l1.41.42c-.13,1.2.07,2.56-.43,3.58-15.17,31.22-26.64,63.78-35.41,97.33-.66,2.54-1.31,5.09-2,7.63,7.87-26.16,16.21-52.1,27.25-77.1l-20,77.48,1,.27A874.79,874.79,0,0,1,451.07,580.1c4.77,3.09,8.53,5.56,12.34,8a2.66,2.66,0,0,0,1.74.14c4-.75,4.71-.19,4.15,3.82-.54,3.82-1.51,7.58-2.09,11.4-2.64,17.15-5.19,34.32-7.81,51.48-.9,5.93-1.91,11.84-2.87,17.75l1.61.26,12.78-78.44L481,595c0,.84.09,2.06,0,3.27q-.84,10.27-1.77,20.54C476.5,648.71,473.93,678.54,466.62,707.8ZM622,779.35c-.08,2.13,0,4.27,0,6.4-.27,1.67-.37,3.38-.55,5.07l-.64,6.1-2.15,20.56c-.31,3-.88,6.37-3.44,7.91a6.36,6.36,0,0,1-5.24.35,15.21,15.21,0,0,1-4.61-2.79,52.15,52.15,0,0,1-5.51-5.17,44.57,44.57,0,0,1-4.31-5.66,5.77,5.77,0,0,0-.54-1.37c-4.75-8.59-9.72-17.06-14.26-25.76s-8.9-17.56-13-26.52c-2.46-5.44-3.93-11.33-6.3-16.82-6.37-14.83-12.15-29.74-14.63-45.89-3.17-20.6-7.47-41-10.93-61.59-2.21-13.18-3.77-26.46-5.66-39.69a26.06,26.06,0,0,0-.84-3.14,40.62,40.62,0,0,0-.06,11.29c2.62,18.67,5.37,37.33,8.1,56,.87,5.93,1.83,11.85,2.7,17.78.46,3.16,3,5.29,3.19,8.93a114.19,114.19,0,0,0,3.75,24.36c3.78,13.39,8.18,26.64,13.19,39.62,3.58,9.28,8.4,18.11,13,27,2,3.92,3.22,7.53,2.19,12.05-1.08,4.72-1,9.69-1.87,14.48-1.85,10.43-3.72,20.86-6.06,31.18-1,4.46-3.16,8.6-9.18,7.79a4.7,4.7,0,0,0-2.76,1c-2.66,1.73-4.19.68-5.06-2-1.14-3.44-2.28-6.88-3.26-10.36-3.54-12.62-6.95-25.27-10.52-37.88-1.33-4.7-2.16-9.22,1-13.54.42-.56.36-1.46.68-2.12,3.85-7.88,3.07-16.44,3.4-24.76.41-10.17.1-20.37.1-30.56H540.7c0,7.11.32,14.24-.08,21.32-.51,9-.38,18.22-2.69,26.76l-.11.41a150.16,150.16,0,0,1-10.24,26.44c-2.09,4.26-4.32,8.44-6.65,12.56-2,3.54-4,7.06-6,10.61a2.63,2.63,0,0,1-3.09,1.35,9.22,9.22,0,0,0-5.6.93c-1.26.66-2.28,1.67-3.67,2.14-2.58.86-3.88-1.57-4.84-3.57A130.5,130.5,0,0,1,490.16,802a339.93,339.93,0,0,1-14.71-85.82c-.42-10.58,1-21.23.49-31.8-.34-7,.64-13.57,1.89-20.26.25-1.35.47-2.71.63-4.07q1.8-16.34,3.57-32.67c1.28-11.79,2.52-23.58,3.91-35.36a4.8,4.8,0,0,1,1.87-3.17c.69-.43,2.17.14,3.2.53,4.92,1.84,6.18,5.4,4.8,10.27a20.43,20.43,0,0,0-.59,4.45c-.1,1.83,0,3.66,0,5.49l1,0c.53-3.15,1.31-6.28,1.54-9.45.3-4,.42-7.31,5.74-8.23,2.19-.38,4-1.41,6.43-.58,3.19,1.08,6.29-.82,7.81-4.21.18-.4.33-.82.49-1.23.9-.2,1.79-.42,2.68-.64,8.31,7.19,8.83,6.75,14.78-.18,3.56.67,7.18,2.51,9.94,1.62,4.51-1.44,5.75.32,7.4,3.77,16.57,34.74,29.73,70.65,37.51,108.43,1,5,2.41,10,3.63,15a38,38,0,0,0-1-8.16c-7.44-41.63-21.46-81-40.18-118.84-1.07-2.16.35-6.7,2.55-8a6.46,6.46,0,0,1,7.76,1.8c10,14.7,20.33,29.25,27.9,45.49C597,638.73,603.47,651,609.1,663.68c5,11.27,10,22.59,11.24,35.17C623,725.65,623.06,752.48,622,779.35Zm40.49,12.5c0,.61-.11,1.21-.22,2.37-.93-.75-1.71-1.12-2.08-1.74-1.1-1.82-2.41-2.16-3.94-.7-2.33,2.21-3.7.83-5-1.14-4.2-6.2-8.27-12.48-12.66-18.54-4.09-5.65-8.58-11-12.78-16.58a8.15,8.15,0,0,1-1.79-4.17c-.74-18.19-1.24-36.4-2-54.59-.18-4.32-1.13-8.61-1.72-12.92l.94-.32c3.39,5.63,6.57,11.4,10.21,16.86s8,10.54,11.65,16c2.35,3.49,4.1,7.38,6.14,11.08C660.26,747.56,662.56,769.46,662.47,791.85ZM741.39,731a4.78,4.78,0,0,1-.71,2.09,1.83,1.83,0,0,1-.61.38,5.31,5.31,0,0,0-1.46,1,13.18,13.18,0,0,1-1.4,1.46c-1.07.8-2,.24-3-.41s-2.19-1.49-3.22-2.33q-12.3-10.09-24.49-20.32a6.61,6.61,0,0,1-2.1-2.91c-3.41-11.46-6.7-23-10-34.46a21,21,0,0,1-.28-2.34c5.33,4.66,10.5,8.38,14.65,13s7.4,10.31,11.69,15.09l-9.26-13.76c4.44,1.74,9.3,2.91,11.69,7.43q3.14,5.94,6.23,11.91,3.55,6.84,7.06,13.7l3.51,6.82c.49.94,1.51,2.25,1.66,3.3A1.33,1.33,0,0,1,741.39,731ZM714.69,605.5a316.25,316.25,0,0,1,35,41.87c5.24,7.46,10.15,15.13,14.85,22.94a124.26,124.26,0,0,1,8.11,16.6,103.41,103.41,0,0,1,3.44,9.88c.6,2,3.5,8,1.22,9.37a8,8,0,0,1-1.57.57,9.17,9.17,0,0,0-3.17,2.15,11.47,11.47,0,0,1-2.75,1.62c-3.92,1.92-7.17-.14-10.51-1.76a622.48,622.48,0,0,1-63.46-35.36,12.45,12.45,0,0,1-3.7-4.43c-1.22-2.16-2-4.58-3-6.86-.95-2.12-2-4.2-3-6.29a1.21,1.21,0,0,0-.18,1.3,292.14,292.14,0,0,1,18.62,62.68c1.57,8.84,2.24,17.84,3.44,26.75.61,4.57,1.39,9.13,2.3,13.66a22.2,22.2,0,0,1,.63,6.54,8.18,8.18,0,0,0,0,1.12l-2.73-1.42-.81,4.24c-3.23-.58-7.18-.14-9.3-1.9-5.4-4.48-11.38-8.13-16-13.84-7.91-9.77-17.27-18.36-25.74-27.69-2.71-3-4.57-6.74-6.75-10.18-1.17-1.85-2.17-3.81-3.25-5.72a2.57,2.57,0,0,0-.34,2.18c.1.6.12,1.2.18,1.81-12-15-23.69-30.05-30.87-48.31l-.58,3.36c-.51-.9-.77-1.32-1-1.76-7.2-15.37-14.49-30.71-21.56-46.14-7.27-15.86-16.63-30.41-27-44.41-1.66-2.25-2.31-5.25-3-6.95l8.72-5.46c.62-.39,1.2-1.13,1.84-1.17,6.13-.4,8.93-3.76,8.62-9.67l5.66-1.16,1,4.31h-3.15l-.33.9c.93.67,1.85,1.36,2.8,2,7,4.65,13.94,9.26,20.87,14a17,17,0,0,1,2.87,2.85c2.32,2.59,4.28,5.61,7,7.75,28.11,22.58,49.51,50.6,66.67,82,3.23,5.92,6.14,12,9.19,18C684.69,659,669.46,636,652.4,614.06l.84-.75,11.32,12.12a1.33,1.33,0,0,0-.23-1.45c-14-13.73-27.56-27.89-42.08-41-10.59-9.58-23-17.12-31.32-29.22-1.6-2.34-.86-9,1.43-10.83,2-1.59,3.6-2.91,6.72-1.63a129.11,129.11,0,0,0,18.64,6A89.74,89.74,0,0,1,641,556.38c5.12,2.88,10.26,5.74,15.52,8.32,17.57,8.62,34.3,18.58,48.79,31.84Q710.1,600.91,714.69,605.5ZM796,586.65l.48.49q2.57,2.73,5.27,5.34c1,.93,2,1.8,2.95,2.77s1.5,1.93,2.27,2.87c1.63,2,3.36,3.9,5.14,5.75a84.56,84.56,0,0,1,6.85,9c1,1.41,1.88,2.89,2.75,4.38.63,1.07,1.91,2.29,2,3.59.06.94-.76.67-1.47.7a9.68,9.68,0,0,0-2.33.37A6.37,6.37,0,0,0,816.6,624c-.25.31-2,3.79-1.68,3.89-2.62-.71-5.11-1.34-7.58-2.06-19-5.47-38-10.65-56.81-16.58-7-2.22-13.41-6.51-20.3-9.32-7.47-3.05-15.2-5.46-22.79-8.22-2-.72-4.17-1.34-5.75-2.63A121.09,121.09,0,0,0,676,573.24c-10.28-4.78-19.93-10.91-30-16.16-6.06-3.15-12.41-5.75-18.62-8.59l-2.22-1,.15-.5c7.6,1.28,15.24,2.39,22.81,3.87,29.59,5.79,59.42,5.08,89.24,3,6.92-.48,13.61-.08,18,5,6.65,7.57,16.94,8.28,24.11,14.58,3.7,3.25,7.66,6.19,11.55,9.2A51.48,51.48,0,0,1,796,586.65Zm16.76-30,10,4.69c1.63.76,3.24,1.6,4.92,2.27,1.11.44,3.61.76,3.6,2.13,0,1.73-6.7,2.55-8.33,2.93q-5.32,1.26-10.73,2.19c-3.43.59-6.85.68-10.31,1.18-3.69.53-7.35,1.23-11,2a8.89,8.89,0,0,1-5.31-.45c-10.71-5.57-21.28-11.35-31.9-17-1.22-.65-2.55-1.17-4.12-1.88A8,8,0,0,1,751,554c12.71-2.44,25.41-4.89,38.14-7.25a5.78,5.78,0,0,1,3.19.4Q802.55,551.83,812.72,556.61Zm26.84-48.13c1.81,1.37,1.58,2.59-.15,3.85a89.4,89.4,0,0,0-8.08,6.06c-13.82,12.64-30.3,20-48.14,24.85-18.94,5.1-38.33,7.18-57.83,7.7-22.82.62-45.71,2.35-68.44-1.63-20.15-3.53-40.32-6.94-60.62-10.43.14-2.5.62-5.25-.91-7.6a8.86,8.86,0,0,0-.46-3c3.49-.6,5.48-2.62,5.67-6.36s.22-7.72.26-11.5a3.31,3.31,0,0,0-.42-1.92,10.91,10.91,0,0,1-.85-1.06,2.79,2.79,0,0,1-.2-1.3,75.21,75.21,0,0,0-.48-10.53c26.15.6,52.15-.24,78.29-1.62,17.66-.93,35-3.51,51.48-10.57a5.29,5.29,0,0,1,2.53-.33c11.67,1.22,23.35,2.33,35,3.79,24.18,3,48.32,6.37,71.9,12.76,1.12.3,2.19.77,3.31,1.17-.29.67-.33,1-.49,1.1a7.64,7.64,0,0,1-1.19.9C835.52,505.41,835.51,505.41,839.56,508.47Z"/><path d="M545.54,332l-.08.43.17-.37Z"/><path d="M561.67,427.69l0,.07.07,0Z"/></svg>