<?xml version="1.0" encoding="utf-8"?>
<!-- Generator: Adobe Illustrator 18.1.0, SVG Export Plug-In . SVG Version: 6.00 Build 0)  -->
<!DOCTYPE svg PUBLIC "-//W3C//DTD SVG 1.1//EN" "http://www.w3.org/Graphics/SVG/1.1/DTD/svg11.dtd" [
	<!ENTITY ns_extend "http://ns.adobe.com/Extensibility/1.0/">
	<!ENTITY ns_ai "http://ns.adobe.com/AdobeIllustrator/10.0/">
	<!ENTITY ns_graphs "http://ns.adobe.com/Graphs/1.0/">
	<!ENTITY ns_vars "http://ns.adobe.com/Variables/1.0/">
	<!ENTITY ns_imrep "http://ns.adobe.com/ImageReplacement/1.0/">
	<!ENTITY ns_sfw "http://ns.adobe.com/SaveForWeb/1.0/">
	<!ENTITY ns_custom "http://ns.adobe.com/GenericCustomNamespace/1.0/">
	<!ENTITY ns_adobe_xpath "http://ns.adobe.com/XPath/1.0/">
]>
<svg version="1.1" id="Layer_1" xmlns:x="&ns_extend;" xmlns:i="&ns_ai;" xmlns:graph="&ns_graphs;"
	 xmlns="http://www.w3.org/2000/svg" xmlns:xlink="http://www.w3.org/1999/xlink" x="0px" y="0px" viewBox="0 0 70 70" xml:space="preserve">
	<g>
		<g>
			<polygon fill="#E8762D" points="40.1,28 31.8,28 31.8,19 28.5,19 28.5,28 20.3,28 20.3,31.2 28.5,31.2 28.5,40.2 31.8,40.2
				31.8,31.2 40.1,31.2 			"/>
			<polygon fill="#C72037" points="23.4,42.7 16,42.7 16,34.6 13.2,34.6 13.2,42.7 5.8,42.7 5.8,45.2 13.2,45.2 13.2,53.2 16,53.2
				16,45.2 23.4,45.2 			"/>
			<polygon fill="#5B879B" points="54.6,13.9 47.1,13.9 47.1,5.8 44.3,5.8 44.3,13.9 36.9,13.9 36.9,16.3 44.3,16.3 44.3,24.3
				47.1,24.3 47.1,16.3 54.6,16.3 			"/>
			<polygon fill="#5C6692" points="36.5,51.7 31.4,51.7 31.4,46 29,46 29,51.7 24,51.7 24,53.8 29,53.8 29,59.5 31.4,59.5
				31.4,53.8 36.5,53.8 			"/>
			<polygon fill="#EB9129" points="23.4,13.9 15.9,13.9 15.9,5.8 13.3,5.8 13.3,13.9 5.8,13.9 5.8,16.2 13.3,16.2 13.3,24.3
				15.9,24.3 15.9,16.2 23.4,16.2 			"/>
			<polygon fill="#5C6692" points="60.3,28.5 55.2,28.5 55.2,22.9 52.8,22.9 52.8,28.5 47.8,28.5 47.8,30.7 52.8,30.7 52.8,36.3
				55.2,36.3 55.2,30.7 60.3,30.7 			"/>
			<polygon fill-rule="evenodd" clip-rule="evenodd" fill="#1F457E" points="54.6,42.7 47.1,42.7 47.1,34.6 44.3,34.6 44.3,42.7
				36.9,42.7 36.9,45.2 44.3,45.2 44.3,53.2 47.1,53.2 47.1,45.2 54.6,45.2 			"/>
			<polygon fill="#7199A6" points="29.3,0 29.3,5.5 24.3,5.5 24.3,7.2 29.3,7.2 29.3,12.7 31.1,12.7 31.1,7.2 36.1,7.2 36.1,5.5
				31.1,5.5 31.1,0 			"/>
			<polygon fill="#7199A6" points="11.8,28.7 6.8,28.7 6.8,23.3 5,23.3 5,28.7 0,28.7 0,30.5 5,30.4 5,35.9 6.8,35.9 6.8,30.4
				11.8,30.4"/>
		</g>
	</g>
</svg>
